<svg width="535" height="644" viewBox="0 0 535 644" fill="none" xmlns="http://www.w3.org/2000/svg">
<g filter="url(#filter0_d_335_15)">
<path d="M110.9 635.4L96.2 616.5L87.1 581.5L99 579.4L113 561.2L135.4 550C140.3 533.2 143.1 516.4 146.6 498.2C149.4 481.4 150.1 463.2 148.7 445L142.4 431.7L137.5 428.9V424.7L142.4 410H153.6L180.9 419.8L183 433.1H190L201.2 428.9V424.7H235.5L240.4 426.8V433.1H247.4V401.6L245.3 385.5L247.4 378.5H254.4C257.9 383.4 261.4 384.8 267 382.7C271.9 381.3 276.1 382 279.6 385.5L284.5 412.8L281.7 440.1H288L318.1 414.9V410H322.3L327.2 403L346.1 382.7H352.4V385.5H357.3V389.7H361.5L364.3 412.8C358 421.9 350.3 428.9 342.6 431.7C334.2 435.9 325.8 440.8 318.1 447.1C311.1 447.1 304.1 449.2 299.2 454.1C293.6 459 288 461.1 281.7 461.1C278.9 468.1 276.8 477.2 276.1 487C275.4 496.8 274.7 506.6 274.7 515.7C288 526.2 304.8 531.8 323.7 531.8C343.3 531.8 361.5 531.8 379.7 531.8L446.2 515.7L463 459V465.3H469.3L480.5 477.2L483.3 484.2L487.5 486.3V490.5H492.4L493.8 488.4V492.6H503.6V499.6H508.5L519.7 506.6L521.8 515.7L519.7 524.8H523.9L528.8 540.9L523.9 543.7V540.9L526 533.9V540.2H530.9V544.4H523.2V551.4H518.3L515.5 558.4C494.5 561.2 473.5 564 451.8 568.9C430.8 573.8 408.4 576.6 386 578.7C367.1 578.7 349.6 578 332.1 575.9C314.6 574.5 297.8 571 280.3 564.7L277.5 553.5L271.2 551.4C264.9 535.3 262.1 519.2 262.1 501.7C262.1 484.2 262.1 467.4 262.1 449.9H255.1L200.5 484.2L195.6 503.1L197.7 512.2L186.5 543.7H190.7L232.7 516.4V526.2L209.6 562.6H204.7L186.5 585.7C176 594.1 164.1 603.2 152.9 610.9C140.3 618.6 129.1 626.3 120.7 635.4H110.9ZM4.5 613.7C33.9 571.7 57 525.5 75.9 476.5C94.1 428.2 105.3 376.4 110.2 323.2H106V312.7C107.4 307.8 108.1 302.2 108.1 294.5C108.1 287.5 110.9 284 116.5 282.6L148.7 291V300.8C141.7 354 128.4 406.5 110.2 459C91.3 510.8 67.5 559.1 36.7 605.3L4.5 613.7ZM167.6 378.5L162.7 358.2H167.6V350.5L187.9 348.4L190 307.8C188.6 302.9 185.8 298.7 182.3 294.5C178.1 291 176.7 286.1 178.8 280.5L185.8 270.7L180.9 261.6H190L210.3 270.7L231.3 263.7V243.4L229.2 236.4H218C203.3 239.9 190.7 244.1 177.4 250.4C164.8 256.7 150.8 258.8 135.4 256.7V253.2L106 246.2V243.4L135.4 231.5L140.3 221L155.7 218.2L169.7 221L229.2 204.2V200H218C214.5 191.6 210.3 182.5 204 173.4C198.4 165.7 192.1 157.3 185.8 149.6C179.5 146.1 173.9 142.6 169.7 139.8C164.8 136.3 160.6 130.7 155.7 124.4V119.5H148.7C148.7 132.1 148 144 146.6 157.3C144.5 169.9 139.6 181.1 130.5 188.8L126.3 158.7H116.5L103.2 176.9L84.3 186.7L66.8 207L46.5 218.2V216.1C59.8 198.6 72.4 181.8 83.6 163.6C95.5 144.7 102.5 124.4 106 102H101.1C94.8 106.9 88.5 110.4 82.9 111.8C76.6 113.9 69.6 116 61.9 117.4L46.5 104.1V97.1H50.7V92.2H64V88L66.8 76.8L91.3 71.9V67.7C99 67.7 106 67 111.6 64.9C116.5 63.5 122.1 61.4 128.4 57.9V39.7L126.3 23.6L155.7 22.2L160.6 49.5H176L187.9 46.7L197 51.6V60C189.3 67.7 180.9 73.3 171.8 76.8C163.4 80.3 157.1 86.6 153.6 97.1C161.3 102 169.7 105.5 176.7 108.3C184.4 111.1 190.7 116.7 197 124.4L201.2 142.6L192.8 144.7L190 154.5L203.3 156.6L210.3 154.5C218 141.9 227.1 130 236.9 117.4C247.4 105.5 254.4 91.5 258.6 76.8H249.5L245.3 78.9V71.9L247.4 64.9L245.3 57.9L252.3 39.7H256.5L270.5 44.6L295 35.5L297.8 28.5L292.9 0.5H318.1V8.20003L316 23.6H320.2C325.1 19.4 331.4 17.3 339.1 18C346.1 18.7 353.1 19.4 359.4 19.4C362.9 21.5 366.4 22.2 369.9 22.2C373.4 22.2 375.5 23.6 375.5 28.5L361.5 35.5V39.7L322.3 53V60L352.4 88L354.5 95C375.5 106.9 398.6 116.7 422.4 125.1C446.2 134.2 469.3 142.6 492.4 151.7H463C439.2 148.9 416.1 144 393.7 137.7C371.3 130.7 350.3 119.5 332.1 104.1L313.9 88L306.9 144.7L297.8 147.5C292.9 141.2 290.1 134.2 289.4 126.5C288.7 118.8 288 111.1 288 102L292.9 88H288L260.7 122.3L245.3 129.3L235.5 140.5C230.6 139.1 227.1 139.8 223.6 142.6C220.1 146.1 216.6 148.9 213.1 151.7L210.3 158.7C218 163.6 226.4 168.5 233.4 173.4C241.1 179 247.4 186.7 252.3 195.8H258.6L284.5 179L286.6 174.8H295L347.5 186.7V193.7L346.1 197.9C328.6 202.1 312.5 206.3 295.7 211.2C278.9 216.1 264.2 223.1 252.3 231.5L260.7 236.4L262.8 253.2H267.7L288 243.4V238.5L322.3 236.4V241.3C330 244.8 338.4 247.6 346.1 249.7C353.1 251.8 360.1 255.3 366.4 259.5V266.5L346.1 275.6L320.2 326L292.9 335.1L284.5 342.1V330.2H279.6C260.7 341.4 243.2 351.2 225 360.3C206.1 369.4 187.2 375 167.6 378.5ZM229.2 335.1V314.8L231.3 295.9H225L218 298L210.3 340H215.2L229.2 335.1ZM270.5 316.2V309.9L286.6 298L290.8 277.7H279.6L256.5 288.9L235.5 328.1H240.4L270.5 316.2Z" fill="#AC881B"/>
</g>
<defs>
<filter id="filter0_d_335_15" x="0.5" y="0.5" width="534.4" height="642.9" filterUnits="userSpaceOnUse" color-interpolation-filters="sRGB">
<feFlood flood-opacity="0" result="BackgroundImageFix"/>
<feColorMatrix in="SourceAlpha" type="matrix" values="0 0 0 0 0 0 0 0 0 0 0 0 0 0 0 0 0 0 127 0" result="hardAlpha"/>
<feOffset dy="4"/>
<feGaussianBlur stdDeviation="2"/>
<feComposite in2="hardAlpha" operator="out"/>
<feColorMatrix type="matrix" values="0 0 0 0 0 0 0 0 0 0 0 0 0 0 0 0 0 0 0.25 0"/>
<feBlend mode="normal" in2="BackgroundImageFix" result="effect1_dropShadow_335_15"/>
<feBlend mode="normal" in="SourceGraphic" in2="effect1_dropShadow_335_15" result="shape"/>
</filter>
</defs>
</svg>
