<svg width="526" height="556" viewBox="0 0 526 556" fill="none" xmlns="http://www.w3.org/2000/svg">
<path d="M495.8 555.8V551.6C488.1 550.2 481.1 546.7 474.1 541.1C467.1 535.5 460.1 530.6 453.1 527.1V522.2L441.2 517.3C441.2 509.6 439.1 504 434.9 499.8C430 494.9 428.6 488.6 428.6 480.9H430V476.7H439.1C451.7 481.6 463.6 486.5 476.9 492.8C489.5 499.1 501.4 506.1 511.9 515.2L525.2 537.6H520.3V549.5H525.2V551.6L495.8 555.8ZM140.9 549.5V546.7C135.3 541.8 131.8 536.9 130.4 530.6C128.3 525 126.9 518 125.5 510.3C130.4 500.5 133.2 488.6 133.9 476C134.6 464.8 134.6 451.5 134.6 438.9C133.2 424.9 132.5 410.9 131.8 396.2C131.1 382.2 128.3 368.9 123.4 357H130.4L154.9 375.2L161.9 390.6H166.1L175.2 348.6L172.4 334.6H164L93.9999 359.1L91.1999 350.7H86.9999L84.8999 338.8C98.1999 329.7 112.9 324.1 130.4 319.9C146.5 316.4 162.6 310.1 177.3 302.4V298.2C182.2 294 187.1 291.2 193.4 289.1C199 287.7 206 287.7 213.7 289.8C220 291.2 225.6 291.9 232.6 292.6C239.6 293.3 243.8 296.8 245.2 302.4L234 314.3C225.6 329 218.6 345.8 215.1 362.6C210.9 380.1 201.8 395.5 188.5 409.5L166.1 417.9C163.3 439.6 160.5 459.9 158.4 480.9C156.3 501.9 154.2 524.3 152.8 546.7L140.9 549.5ZM274.6 522.2C279.5 513.1 283.7 504 286.5 496.3C290 487.9 292.1 478.1 292.1 468.3H285.8V461.3L292.1 456.4H283.7L262.7 461.3L256.4 436.1C265.5 428.4 273.9 420.7 281.6 413C288.6 404.6 292.1 394.1 292.1 382.2H299.1V377.3L292.1 350.7L297 314.3C295.6 306.6 292.8 299.6 287.9 294C283.7 287.7 280.2 281.4 276.7 273.7L299.1 270.9C302.6 262.5 306.8 253.4 312.4 245C316.6 237.3 319.4 227.5 319.4 217C315.9 212.1 312.4 209.3 307.5 209.3C301.9 208.6 297 207.9 292.1 205.8L274.6 187.6V179.2C283.7 172.9 293.5 168.7 305.4 165.2C315.9 161.7 327.8 161 340.4 163.1L341.8 170.1H353.7C362.8 165.2 371.2 160.3 381.7 154.7C391.5 150.5 401.3 147 411.8 144.9C418.1 148.4 425.8 149.8 432.8 150.5C440.5 151.2 447.5 151.9 455.2 153.3V158.2L446.1 179.2L360.7 201.6V205.8L380.3 212.1L383.1 221.9L378.2 233.1H385.2L394.3 231L396.4 224L441.2 217C447.5 223.3 455.2 226.1 462.9 226.8C471.3 227.5 479.7 229.6 487.4 233.1L488.8 244.3L480.4 260.4L466.4 264.6C462.9 282.8 461.5 300.3 460.8 318.5C460.1 336.7 459.4 354.9 459.4 375.2L463.6 422.8L455.2 424.9V427L444 431.9H434.9V427L425.8 424.9V417.9H416.7C400.6 424.2 383.1 428.4 366.3 431.2C348.8 434.7 332 439.6 314.5 445.2V449.4C322.2 450.8 330.6 452.2 338.3 452.9C345.3 453.6 351.6 456.4 357.9 461.3L360.7 470.4L350.9 474.6C353 477.4 352.3 480.2 350.2 482.3C348.1 484.4 345.3 485.8 341.8 485.8L333.4 490.7V494.9L317.3 503.3V508.2L274.6 522.2ZM0.899902 413.7C21.1999 375.9 41.4999 338.8 62.4999 301.7C83.4999 265.3 97.4999 224.7 105.2 180.6L125.5 170.1L164 177.1V182.7C156.3 187.6 150.7 193.2 145.8 200.9C140.9 208.6 136.7 215.6 130.4 221.9C108.7 248.5 91.8999 277.2 79.9999 307.3C68.0999 337.4 53.3999 366.8 37.2999 395.5L0.899902 413.7ZM414.6 390.6L416.7 388.5L414.6 386.4C417.4 378 418.8 367.5 418.8 357C418.8 347.2 418.8 336 418.8 326.2L407.6 323.4V329.7H409.7V334.6L399.2 338.8V343.7L348.8 361.2V359.1L331.3 354.9L328.5 371L331.3 380.1H326.4V384.3L319.4 393.4H324.3V397.6L267.6 434L265.5 441H272.5L414.6 390.6ZM416.7 319.2V314.3L414.6 296.8H405.5L333.4 321.3V334.6H337.6C348.1 329.7 359.3 326.2 369.8 323.4C379.6 320.6 391.5 318.5 402.7 316.4L416.7 319.2ZM168.2 280C161.2 275.8 153.5 270.2 147.2 263.9C140.2 256.9 136 249.2 132.5 241.5H161.9L186.4 251.3L191.3 260.4L184.3 270.9L175.2 275.8L172.4 280H168.2ZM407.6 273.7L409.7 270.9L407.6 262.5L394.3 260.4L357.9 264.6L353.7 262.5C353.7 257.6 352.3 254.8 348.8 253.4C345.3 252 341.8 252 337.6 253.4C333.4 254.8 329.9 256.9 326.4 259.7C322.9 263.2 321.5 266.7 321.5 270.9L331.3 275.8V280L328.5 296.8L340.4 298.2L407.6 273.7ZM236.1 233.1C225.6 229.6 215.8 223.3 206.7 214.2C197.6 205.8 188.5 196.7 179.4 187.6L172.4 174.3L182.2 172.2C194.1 173.6 206 176.4 218.6 179.9C229.8 183.4 241 189 250.1 196.7L258.5 214.9H254.3V219.1L256.4 226.1L236.1 233.1ZM132.5 137.9L120.6 130.9C114.3 124.6 109.4 118.3 105.2 109.9C100.3 101.5 98.1999 92.4 98.1999 84L101 72.8L93.9999 43.4H103.1C111.5 46.2 118.5 51.1 123.4 58.8C128.3 65.8 132.5 74.2 137.4 81.9V86.1H157L188.5 79.1V70L184.3 56.7L179.4 54.6L177.3 34.3L184.3 21L182.2 16.1L184.3 4.89998L182.2 0.699951H186.4C195.5 2.09997 204.6 3.49996 213.7 4.89998C222.8 6.29996 230.5 9.79996 238.2 16.1L243.1 30.1H238.2L229.1 45.5L220.7 65.8L234 70L311 61.6L314.5 32.2L313.1 25.2L304 23.1V21L313.1 18.2C313.8 13.3 317.3 11.9 322.9 12.6C328.5 13.3 333.4 14 337.6 14L371.2 27.3L373.3 43.4C369.1 53.9 364.9 64.4 360.7 74.8999C355.8 85.4 349.5 95.2 341.8 104.3L319.4 108.5L306.1 95.2H285.8C258.5 101.5 232.6 107.8 208.1 114.8C182.9 121.8 157.7 128.8 132.5 137.9Z" fill="#AC881B"/>
</svg>
