<svg width="578" height="587" viewBox="0 0 578 587" fill="none" xmlns="http://www.w3.org/2000/svg">
<path d="M359.9 586.5V583.7L349.4 576.7L339.6 547.3L342.4 538.2L339.6 527H344.5L349.4 496.9V357.6C347.3 348.5 343.8 340.1 338.9 331C333.3 322.6 329.1 314.2 325.6 305.1L319.3 303L257.7 314.2L227.6 291.1C278 282.7 327 272.2 376 260.3C423.6 249.1 474 244.2 527.2 245.6L550.3 252.6L552.4 263.8H548.2L543.3 275L529.3 279.9L527.2 284.8L504.1 286.2L412.4 282.7L378.8 289V293.2L385.1 325.4C406.8 331.7 427.8 338.7 448.1 345.7C468.4 353.4 488.7 364.6 506.9 377.9L509 389.8L504.1 396.8H499.9L492.9 394.7L469.8 398.9L390 357.6L383 426.2L385.1 432.5L383 444.4L385.1 456.3C380.2 468.2 378.8 481.5 378.1 494.8C377.4 508.8 376.7 522.1 376.7 536.1L378.8 576.7L359.9 586.5ZM33.0001 401.7L16.9 391.9C15.5 384.2 12.7001 377.2 9.20005 371.6C5.00005 365.3 3.60005 357.6 5.70005 348.5C10.6 342.9 13.4001 335.9 14.1001 328.9C14.8001 321.9 14.8 314.2 14.8 307.2C13.4001 295.3 12 284.1 10.6001 272.9C8.50005 262.4 5.70005 251.9 0.800049 240.7H9.90005L37.9 256.8C45.6001 267.3 49.8001 279.2 50.5001 291.8C51.2001 305.1 51.9 318.4 51.9 332.4H60.3L97.4001 312.1L99.5 300.2H104.4L111.4 233.7L108.6 226.7C103.7 226.7 100.2 226 98.1001 222.5C96 219.7 93.9001 216.9 92.5001 213.4L88.3001 177C92.5001 172.1 93.9001 166.5 92.5001 158.8C91.1001 151.1 91.8001 144.1 94.6001 138.5L97.4001 144.8H101.6L104.4 135.7H106.5L111.4 146.9L131.7 153.9L135.9 218.3L126.8 300.2H138.7L163.9 286.2C166.7 277.8 168.8 268 169.5 258.9C170.2 250.5 170.9 240 170.9 229.5L163.9 206.4H156.9V201.5H177.2L205.2 208.5C209.4 214.8 211.5 223.2 211.5 231.6C211.5 240.7 212.2 249.8 213.6 256.8L193.3 337.3L181.4 342.2L163.9 323.3H156.9L126.8 339.4L124.7 345.7C111.4 345.7 98.8001 349.2 87.6001 356.2C75.7 363.2 63.1 370.9 51.9 377.9C48.4001 382.8 45.6001 387 43.5001 391.9C41.4 396.8 37.9001 399.6 33.0001 401.7ZM247.9 233.7C243 227.4 238.1 225.3 232.5 225.3C226.2 225.3 222 223.2 218.5 218.3L264 199.4L266.1 195.2L319.3 184C323.5 172.8 326.3 161.6 328.4 149C329.8 137.8 330.5 124.5 330.5 110.5C329.1 93.6999 325.6 78.9998 320 64.9999C313.7 51.6999 310.2 36.2999 310.2 19.4999L314.4 0.599854H325.6C331.9 6.89986 338.2 11.0998 344.5 14.5998C350.8 18.0999 357.1 19.4999 364.8 19.4999L366.9 87.3999H371.8L380.9 76.1999H397C406.1 78.2999 415.9 78.9998 427.1 78.9998C437.6 78.9998 447.4 80.3999 456.5 85.2999V94.3998C443.9 102.1 432 109.8 418.7 116.1C406.1 123.1 391.4 127.3 376.7 128.7L362.7 121.7L332.6 181.2H344.5C369 176.3 393.5 172.1 418.7 168.6C443.9 165.8 468.4 160.2 492.9 153.9L529.3 156L548.2 153.9C554.5 155.3 560.1 156.7 567.1 158.1C574.1 160.2 577.6 165.1 577.6 172.1L570.6 184C517.4 190.3 462.8 195.2 407.5 198C351.5 202.2 298.3 214.1 247.9 233.7Z" fill="#AC881B"/>
</svg>
