<svg width="528" height="544" viewBox="0 0 528 544" fill="none" xmlns="http://www.w3.org/2000/svg">
<path d="M312.4 543.2C305.2 543.2 301.6 539.8 301.6 533C301.6 531 301.8 524.6 302.2 513.8C302.6 503 302.8 489.8 302.8 474.2C303.2 458.2 303.6 441.6 304 424.4C304.4 407.2 304.6 391.4 304.6 377V291.2H196C196.4 341.6 196.8 378.8 197.2 402.8C198 426.4 198.4 439.2 198.4 441.2C198.4 444.8 195.6 448 190 450.8C184.8 453.6 178.6 455 171.4 455C163.8 455 160 452 160 446V414.2H41.2V485C41.2 488.6 38.2 491.8 32.2 494.6C26.6 497 19.9999 498.2 12.3999 498.2C5.99995 498.2 2.79995 495.2 2.79995 489.2C2.79995 486.8 2.99995 478.8 3.39995 465.2C3.79995 451.6 4.19995 431.2 4.59995 404C4.99995 376.8 5.39995 341.6 5.79995 298.4C6.19995 255.2 6.39995 202.6 6.39995 140.6C6.39995 133.4 5.99995 128 5.19995 124.4C4.39995 120.8 3.39995 118 2.19995 116C0.199951 114 0.199951 111.8 2.19995 109.4C3.39995 108.2 5.19995 107.8 7.59995 108.2C14 109.4 22.2 111 32.2 113C42.6 115 51 117 57.4 119C61.4 119.4 62.9999 121.8 62.1999 126.2C62.1999 130.2 59.9999 132.2 55.6 132.2C51.6 132.6 48.1999 133.6 45.3999 135.2C42.5999 136.4 41.2 140 41.2 146V395.6H84.9999V48.1999C84.9999 33.3999 83.5999 23.9999 80.7999 19.9999C79.6 17.9999 79.6 15.7999 80.7999 13.3999C82.4 11.7999 84.4 11.3999 86.7999 12.1999C93.2 13.3999 102 15.1999 113.2 17.5999C124.8 19.5999 133.8 21.5999 140.2 23.5999C144.2 24.7999 145.8 27.1999 145 30.7999C145 34.3999 142.8 36.5999 138.4 37.3999C134.4 37.7999 130.2 38.5999 125.8 39.7999C121.8 40.9999 119.8 44.5999 119.8 50.5999V395.6H160V153.8C160 139 158.6 129.6 155.8 125.6C154.2 123.2 154.2 121.2 155.8 119.6C157.4 118 159.4 117.4 161.8 117.8C168.2 119 176.4 120.6 186.4 122.6C196.8 124.6 205.2 126.6 211.6 128.6C214.8 129.8 216.4 132.2 216.4 135.8C216 139.8 213.8 141.8 209.8 141.8C205.4 142.2 201.8 143.2 199 144.8C196.6 146 195.4 149.6 195.4 155.6V192.2H302.2V36.7999C302.2 21.9999 300.8 12.5999 298 8.59989C296.4 6.19989 296.4 3.9999 298 1.9999C300 0.799891 302 0.399895 304 0.799914C310.8 1.9999 320 3.9999 331.6 6.79991C343.6 9.19991 353.2 11.3999 360.4 13.3999C363.6 14.5999 365.2 16.9999 365.2 20.5999C364.8 24.5999 362.6 26.5999 358.6 26.5999C354.2 26.9999 349.8 27.9999 345.4 29.5999C341.4 30.7999 339.4 34.3999 339.4 40.3999V94.3999H419.8C422.2 94.3999 424.4 93.3999 426.4 91.3999C428.4 89.3999 432 85.5999 437.2 79.9999C442.4 74.3999 446 70.5999 448 68.5999C451.2 64.9999 454.8 64.7999 458.8 67.9999C461.6 69.9999 465 72.9999 469 76.9999C473.4 80.5999 477.6 84.1999 481.6 87.7999C486 91.3999 489 94.1999 490.6 96.1999C494.2 99.7999 495.4 103.4 494.2 107C493.4 110.6 490.8 112.4 486.4 112.4H339.4V192.2H448.6C451.4 192.2 453.6 191.4 455.2 189.8C456.4 188.2 458.6 185.6 461.8 182C465 178.4 468.2 174.8 471.4 171.2C474.6 167.6 476.8 165.2 478 164C480.8 160 484.2 159.8 488.2 163.4C492.6 166.2 498.6 171.2 506.2 178.4C513.8 185.2 519.4 190.6 523 194.6C526.6 198.2 527.8 201.8 526.6 205.4C525.8 208.6 523.4 210.2 519.4 210.2H195.4V273.2H443.8C446.6 273.2 448.8 272.4 450.4 270.8C452.4 268.4 456.2 264 461.8 257.6C467.4 251.2 471.2 247 473.2 245C476.4 241.4 480 241.2 484 244.4C488 247.2 493.8 252.2 501.4 259.4C509 266.2 514.8 271.4 518.8 275C522 279 523.2 282.8 522.4 286.4C521.6 289.6 519 291.2 514.6 291.2H341.8V323.6C355.4 327.2 370.4 332.6 386.8 339.8C403.6 347 419 355.2 433 364.4C447 373.2 457.2 382.6 463.6 392.6C470 402.2 472.4 412.2 470.8 422.6C469.2 432.6 465.6 439 460 441.8C456 443.4 452.2 443.8 448.6 443C445 441.8 441.4 438.2 437.8 432.2C426.2 413.4 411.8 396.2 394.6 380.6C377.8 364.6 360.2 351 341.8 339.8V377C341.8 391 342 406.4 342.4 423.2C342.8 440 343 456.2 343 471.8C343.4 487.4 343.8 500.4 344.2 510.8C344.6 521.2 344.8 527 344.8 528.2C344.8 531 341.8 534.2 335.8 537.8C330.2 541.4 322.4 543.2 312.4 543.2Z" fill="#AC881B"/>
</svg>
