<svg width="557" height="544" viewBox="0 0 557 544" fill="none" xmlns="http://www.w3.org/2000/svg">
<path d="M294.4 443C287.6 443 284.2 439.8 284.2 433.4C284.2 431.8 284.4 425.6 284.8 414.8C285.2 404 285.6 390.2 286 373.4C286.4 356.6 286.8 338.6 287.2 319.4C287.6 299.8 287.8 281 287.8 263C287.8 240.6 287.2 225.4 286 217.4C285.2 209.4 283.8 203.4 281.8 199.4C280.6 197 281 195 283 193.4C285 191.4 287.2 191.2 289.6 192.8L328 212H366.4L373.6 164H278.8C278.8 164 275.4 164.2 268.6 164.6C262.2 164.6 255 165.4 247 167L242.2 140.6C252.2 143 260.8 144.4 268 144.8C275.2 145.2 278.8 145.4 278.8 145.4H481C483.8 145.4 486 144.6 487.6 143C488.8 141.8 491 139.6 494.2 136.4C497.8 132.8 501.2 129.2 504.4 125.6C508 122 510.2 119.8 511 119C515 115.8 518.6 115.6 521.8 118.4C523.8 120 526.8 122.8 530.8 126.8C535.2 130.8 539.4 134.8 543.4 138.8C547.4 142.8 550.4 145.8 552.4 147.8C556 151.8 557.2 155.6 556 159.2C555.2 162.4 552.6 164 548.2 164H418L385.6 212H467.2C469.6 212 471.8 211 473.8 209C475.8 207 478.2 204.6 481 201.8C484.2 199 486.8 196.6 488.8 194.6C490.8 192.6 492.4 191.6 493.6 191.6C495.2 191.2 497.4 192.2 500.2 194.6C504.2 197.4 509.4 201.6 515.8 207.2C522.2 212.4 526.8 216.6 529.6 219.8C534.4 224.6 533.8 228.4 527.8 231.2C525.4 232.4 523 233.6 520.6 234.8C518.6 236 516.6 237 514.6 237.8C513 238.6 511.8 239.6 511 240.8C510.2 242 509.8 244.6 509.8 248.6C509.8 263.4 510 280.4 510.4 299.6C510.8 318.8 511.4 337.6 512.2 356C513 374.4 513.6 390 514 402.8C514.4 415.6 514.6 423.2 514.6 425.6C514.6 429.2 511.8 432.4 506.2 435.2C500.6 438 493.8 439.4 485.8 439.4C478.6 439.4 475 436.4 475 430.4V422.6H322.6V429.8C322.6 432.6 319.4 435.6 313 438.8C307 441.6 300.8 443 294.4 443ZM103.6 543.2C96.0001 543.2 92.2001 540.4 92.2001 534.8C92.2001 532.4 92.4001 523.6 92.8001 508.4C93.6001 493.6 94.2001 475.4 94.6001 453.8C95.4001 432.2 95.8001 410.6 95.8001 389V337.4H53.2001C53.2001 337.4 49.8001 337.6 43.0001 338C36.6001 338 29.4001 338.8 21.4001 340.4L16.6001 314C26.6001 316.4 35.2001 317.8 42.4001 318.2C49.6001 318.6 53.2001 318.8 53.2001 318.8H191.2C194 318.8 196.2 318 197.8 316.4L212.8 301.4C214.8 299.4 216.4 298.4 217.6 298.4C219.2 298.4 221.4 299.4 224.2 301.4C228.6 304.6 233.6 308.8 239.2 314C244.8 319.2 249.6 323.8 253.6 327.8C255.6 329.4 256.6 331.4 256.6 333.8C256.6 335.8 255 337.6 251.8 339.2C249.8 340 247.6 341 245.2 342.2C243.2 343 241.2 343.8 239.2 344.6C235.6 346.2 233.8 349.4 233.8 354.2C233.8 366.2 233.8 378.6 233.8 391.4C234.2 404.2 234.4 415.4 234.4 425C234.8 434.6 235 440.8 235 443.6C235 458.4 231.6 470.2 224.8 479C218 487.4 207 494 191.8 498.8C187.8 488.4 184 480.8 180.4 476C176.8 471.2 172.2 467.8 166.6 465.8C161 463.8 152.8 462.4 142 461.6C138.4 456.4 139 452.4 143.8 449.6C148.2 449.6 154.2 449.8 161.8 450.2C169.4 450.6 177 450.8 184.6 450.8C190.6 450.8 194.4 449.8 196 447.8C198 445.8 199 442.8 199 438.8L199.6 336.8L130 337.4V389.6C130 410.8 130.2 431.4 130.6 451.4C131 471.4 131.2 488.4 131.2 502.4C131.6 516.4 131.8 525 131.8 528.2C131.8 531.4 128.8 534.6 122.8 537.8C116.8 541.4 110.4 543.2 103.6 543.2ZM89.2001 125C82.8001 125 79.6001 121.8 79.6001 115.4C79.6001 113.4 79.8001 108 80.2001 99.1999C80.6001 90.3999 81.0001 80.5999 81.4001 69.7999C81.8001 58.5999 82.0001 49.1999 82.0001 41.5999C82.0001 34.3999 81.6001 29.1999 80.8001 25.9999C80.4001 22.3999 79.4001 19.3999 77.8001 16.9999C76.2001 14.5999 76.2001 12.5999 77.8001 10.9999C79.4001 9.39989 81.4001 8.7999 83.8001 9.19991C88.2001 9.9999 93.8001 11.1999 100.6 12.7999C107.8 14.3999 115 15.9999 122.2 17.5999C129.4 19.1999 135.2 20.5999 139.6 21.7999C142.8 22.9999 144.4 25.3999 144.4 28.9999C144 32.5999 141.8 34.7999 137.8 35.5999C133.4 35.9999 129 36.7999 124.6 37.9999C120.6 39.1999 118.6 42.7999 118.6 48.7999V81.7999H262.6V36.7999C262.6 21.9999 261.2 12.5999 258.4 8.59989C256.8 6.19989 256.8 3.9999 258.4 1.9999C259.6 0.799891 261.6 0.399895 264.4 0.799914C268.8 1.5999 274.6 2.7999 281.8 4.3999C289 5.59991 296.2 6.99991 303.4 8.59989C310.6 10.1999 316.4 11.5999 320.8 12.7999C324.8 13.9999 326.4 16.3999 325.6 19.9999C325.6 23.5999 323.4 25.7999 319 26.5999C315 26.9999 310.8 27.7999 306.4 28.9999C302.4 30.1999 300.4 33.7999 300.4 39.7999V81.7999H440.2V45.1999C440.2 30.7999 438.6 21.3999 435.4 16.9999C434.2 14.9999 434.2 12.7999 435.4 10.3999C437 8.79989 439 8.3999 441.4 9.19991C445.8 9.9999 451.4 11.1999 458.2 12.7999C465.4 14.3999 472.6 15.9999 479.8 17.5999C487.4 19.1999 493.4 20.5999 497.8 21.7999C501 22.1999 502.6 24.5999 502.6 28.9999C502.2 32.9999 500 34.9999 496 34.9999C491.6 35.3999 487.2 36.3999 482.8 37.9999C478.8 39.1999 476.8 42.7999 476.8 48.7999C476.8 60.7999 477.2 72.9999 478 85.3999C478.8 97.7999 479.2 105.4 479.2 108.2C479.2 111.4 476 114.8 469.6 118.4C463.6 121.6 457 123.2 449.8 123.2C443.4 123.2 440.2 120 440.2 113.6V99.7999H118.6V111.2C118.6 114.4 115.2 117.6 108.4 120.8C102 123.6 95.6001 125 89.2001 125ZM8.80006 294.8C2.80006 294 0.200063 290.8 1.00006 285.2C17.0001 271.2 32.6001 255.8 47.8001 239C63.4001 222.2 77.6001 205 90.4001 187.4C103.6 169.4 114 152.4 121.6 136.4C124.4 130.4 126 125.6 126.4 122C127.2 118.4 127.6 115.6 127.6 113.6C128 110.8 128.8 109 130 108.2C131.6 107 133.6 107 136 108.2C142.8 111.8 150.2 116 158.2 120.8C166.6 125.6 173.4 129.6 178.6 132.8C181.8 134.4 182.6 137.2 181 141.2C179.4 144.8 176.6 146.2 172.6 145.4C169 144.6 165.8 144.4 163 144.8C160.6 144.8 158.2 146.4 155.8 149.6C175.8 158.4 194.2 168 211 178.4C228.2 188.8 241.2 199.8 250 211.4C256.8 220.2 259.4 229.2 257.8 238.4C256.6 247.2 253.8 253.2 249.4 256.4C245.8 258.8 242.2 259.8 238.6 259.4C235.4 258.6 232.2 255 229 248.6C219 229.8 207 213.4 193 199.4C179.4 185.4 164.4 172.6 148 161C124.4 194.2 97.4001 224 67.0001 250.4C75.4001 252 82.4001 253 88.0001 253.4C93.6001 253.4 96.4001 253.4 96.4001 253.4H157.6C160.4 253.4 162.6 252.6 164.2 251C166.2 248.6 168.6 245.8 171.4 242.6C174.2 239.4 176.4 237 178 235.4C181.2 231.8 185 231.6 189.4 234.8C192.2 237.2 196 240.8 200.8 245.6C206 250.4 210.4 254.4 214 257.6C217.2 260.4 218.2 263.4 217 266.6C216.2 269.8 214 271.4 210.4 271.4H97.0001C97.0001 271.4 93.6001 271.6 86.8001 272C80.0001 272 72.6001 273 64.6001 275L61.0001 255.2C45.0001 268.8 27.6001 282 8.80006 294.8ZM322.6 404.6H475V356.6H322.6V404.6ZM322.6 338.6H475V293H322.6V338.6ZM322.6 275H475V230H322.6V275ZM190.6 543.2C185.4 540.4 184.2 536.6 187 531.8C203 525.8 220.2 518 238.6 508.4C257 499.2 274.2 489.4 290.2 479C306.2 468.6 318.2 458.6 326.2 449C331.4 443.4 334.4 439 335.2 435.8C336 432.6 337.6 430.6 340 429.8C341.6 429 343.4 429.6 345.4 431.6C350.2 435.6 356 440.8 362.8 447.2C370 453.6 376.2 459.4 381.4 464.6C383.8 467.4 384 470.2 382 473C379.2 476.6 376.2 477.4 373 475.4C369 473.4 365.8 472.4 363.4 472.4C361 472 357.6 473.2 353.2 476C332 489.2 306.8 501.8 277.6 513.8C248.4 525.8 219.4 535.6 190.6 543.2ZM545.8 535.4C541.8 537.8 537.8 538.2 533.8 536.6C530.2 535 525.6 530.4 520 522.8C507.6 506.8 492 492 473.2 478.4C454.4 464.4 435.8 453.8 417.4 446.6C415.4 441 417 437.2 422.2 435.2C435.4 437.6 449.8 441.6 465.4 447.2C481.4 452.4 496.4 458.4 510.4 465.2C524.8 472 536 479.4 544 487.4C552 495 555.6 504 554.8 514.4C554.4 524.8 551.4 531.8 545.8 535.4Z" fill="#AC881B"/>
</svg>
