<svg width="559" height="547" viewBox="0 0 559 547" fill="none" xmlns="http://www.w3.org/2000/svg">
<path d="M9.6 538.6C3.2 538.6 0 536 0 530.8C10 517.6 19.2 504.2 27.6 490.6C36 476.6 43.2 460.6 49.2 442.6C55.6 424.2 60.4 402.2 63.6 376.6C67.2 351 68.8 320 68.4 283.6C68.4 260.8 67.8 242 66.6 227.2C65.4 212 63.2 201.2 60 194.8C58.8 192.8 59.2 190.8 61.2 188.8C63.2 186.8 65.4 186.6 67.8 188.2C70.6 189.4 74.6 191.4 79.8 194.2C85.4 196.6 91 199.2 96.6 202C102.6 204.8 107.4 207.2 111 209.2H255.6V194.2C255.6 189.8 255.4 186 255 182.8C255 179.6 254.8 176.8 254.4 174.4L227.4 187C225.4 186.2 223.8 184.8 222.6 182.8C221.4 180.8 221.2 178.6 222 176.2C241.2 164.2 261.8 150 283.8 133.6C306.2 116.8 326.2 98 343.8 77.2H179.4V86.2C191 88.6 202.8 92.2 214.8 97C226.8 101.4 235.6 107 241.2 113.8C246.8 120.6 248.8 128 247.2 136C246 144 243.2 149 238.8 151C235.6 152.6 232.6 153 229.8 152.2C227.4 151 224.6 147.6 221.4 142C217 134 211.2 126.6 204 119.8C197.2 112.6 189.2 106.4 180 101.2C180 110 180.2 120.4 180.6 132.4C181 144.4 181.4 155.4 181.8 165.4C182.2 175 182.4 181.2 182.4 184C182.4 186.8 180 189.6 175.2 192.4C170.4 195.2 164.8 196.6 158.4 196.6C155.2 196.6 152.8 196.2 151.2 195.4C149.6 194.2 148.8 191.8 148.8 188.2C148.8 186.2 149 180.6 149.4 171.4C149.8 161.8 150 151 150 139C150.4 126.6 150.6 115.2 150.6 104.8C130.2 127.2 108 147 84 164.2C60.4 181.4 36.8 196 13.2 208C7.2 206 5.2 202.4 7.2 197.2C21.2 187.6 36 176.4 51.6 163.6C67.2 150.8 82.2 137 96.6 122.2C111.4 107 124.2 92 135 77.2H55.8C55.8 77.2 52.4 77.4 45.6 77.8C39.2 77.8 32 78.6 24 80.2L19.2 56.2C29.2 58.6 37.8 60 45 60.4C52.2 60.8 55.8 61 55.8 61H150.6V37C150.6 22.2 149.2 12.8 146.4 8.79998C145.2 6.79998 145.2 4.59998 146.4 2.19996C148.4 0.999974 150.4 0.599979 152.4 0.999974C158.8 2.19998 165.6 3.79999 172.8 5.79999C180 7.39999 186.8 9.19999 193.2 11.2C196.4 12 198 14.4 198 18.4C197.6 22 195.4 24.2 191.4 25C187.4 25.4 184.4 26.2 182.4 27.4C180.4 28.6 179.4 32.2 179.4 38.2V61H226.8C229.6 61 231.8 60.2 233.4 58.6C235.8 56.2 239 52.8 243 48.4C247 43.6 250 40.2 252 38.2C254 36.2 255.8 35.2 257.4 35.2C259 35.2 261 36 263.4 37.6C267.4 40.4 271.6 44.2 276 49C280.8 53.4 285 57.4 288.6 61H364.2V37C364.2 23 362.8 13.6 360 8.79998C358 6.79998 358 4.59998 360 2.19996C361.2 0.999974 363.2 0.599979 366 0.999974C372 2.19998 378.6 3.79999 385.8 5.79999C393 7.39999 399.8 9.19999 406.2 11.2C410.2 12.4 411.8 14.8 411 18.4C411 22 409 24.2 405 25C400.6 25.4 397.4 26.2 395.4 27.4C393.8 28.6 393 32.2 393 38.2V61H461.4C464.2 61 466.2 60.2 467.4 58.6C469.8 56.2 473 52.8 477 48.4C481.4 43.6 484.4 40.2 486 38.2C489.6 34.6 493.4 34.4 497.4 37.6C501.4 40.4 506.2 44.2 511.8 49C517.4 53.8 522 58.2 525.6 62.2C529.2 65.4 530.4 68.8 529.2 72.4C528.4 75.6 526.2 77.2 522.6 77.2H406.8C426.8 98 450.2 114 477 125.2C504.2 136 531.4 144 558.6 149.2C549 152 539.8 156.8 531 163.6C522.6 170.4 517 176.6 514.2 182.2C489.4 170.2 466.8 156.4 446.4 140.8C426.4 124.8 408.6 104.8 393 80.8V92.8C393 98.4 393.2 105.8 393.6 115C394 124.2 394.2 133.6 394.2 143.2C394.6 152.8 395 161.4 395.4 169C395.8 176.6 396 181.6 396 184C396 186.8 393.6 189.6 388.8 192.4C384 195.2 378.2 196.6 371.4 196.6C368.6 196.6 366.2 196.2 364.2 195.4C362.6 194.2 361.8 191.8 361.8 188.2C361.8 185.8 362 179.4 362.4 169C362.8 158.6 363.2 146.8 363.6 133.6C364 120.4 364.2 108.6 364.2 98.2C351 111.4 337 123.2 322.2 133.6C307.8 144 293 153.4 277.8 161.8C283 163 288.2 164.4 293.4 166C299 167.2 303.8 168.4 307.8 169.6C311 170 312.6 172.4 312.6 176.8C312.2 180.8 310 182.8 306 182.8C301.6 183.2 298 184.2 295.2 185.8C292.8 187 291.6 190.6 291.6 196.6V209.2H442.2C445 209.2 447.2 208.4 448.8 206.8C450.8 204.4 454.6 200.2 460.2 194.2C465.8 187.8 469.6 183.4 471.6 181C474.4 177.8 477.8 177.6 481.8 180.4C486.2 183.2 492.2 188 499.8 194.8C507.4 201.2 513 206.4 516.6 210.4C520.2 214.4 521.4 218.2 520.2 221.8C519.4 225 517 226.6 513 226.6H349.8V267.4H426C428.8 267.4 431 266.6 432.6 265C435 262.6 437.6 260 440.4 257.2C443.2 254.4 445.8 251.6 448.2 248.8C450.2 246.8 451.8 245.8 453 245.8C454.6 245.8 456.8 246.8 459.6 248.8C463.6 251.6 469.2 256.2 476.4 262.6C483.6 268.6 489 273.2 492.6 276.4C497.4 281.2 496.6 285 490.2 287.8C488.6 288.6 486.8 289.6 484.8 290.8C483.2 291.6 481.4 292.4 479.4 293.2C476.2 294.4 474.6 297.2 474.6 301.6C474.6 307.6 474.8 315 475.2 323.8C476 332.2 476.6 340 477 347.2C477.4 354 477.6 358.4 477.6 360.4C477.6 364 474.2 367.2 467.4 370C461 372.4 454.4 373.6 447.6 373.6C440 373.6 436.2 370.4 436.2 364V357.4H99.6C96 388.6 89.8 415.4 81 437.8C72.2 459.8 61.6 479 49.2 495.4C37.2 511.4 24 525.8 9.6 538.6ZM360 526.6C344.4 525.8 333.4 523.4 327 519.4C321 515.8 318 508 318 496V401.8C318 387.4 316.4 378 313.2 373.6C312 371.2 312 369 313.2 367C314.8 365.4 316.8 365 319.2 365.8C325.6 366.6 333.8 368.4 343.8 371.2C353.8 373.6 362.4 375.8 369.6 377.8C372.8 379 374.4 381.4 374.4 385C374 388.6 371.8 390.8 367.8 391.6C363.4 392 359.6 392.8 356.4 394C353.6 395.2 352.2 399 352.2 405.4V433C359.8 430.6 368.6 427.6 378.6 424C389 420 399.2 416 409.2 412C419.6 407.6 428.4 403.4 435.6 399.4C443.6 395 448 391 448.8 387.4C450 383.8 452 382 454.8 382C456.8 381.6 458.8 382.2 460.8 383.8C464.4 387.8 469.8 393.4 477 400.6C484.6 407.4 490.4 413 494.4 417.4C496.4 419.8 496.2 422.6 493.8 425.8C491.4 428.6 488.4 429 484.8 427C481.2 425 477.4 424 473.4 424C469.8 424 463.6 425.2 454.8 427.6C444.8 430 433.6 432.6 421.2 435.4C408.8 437.8 396.4 440 384 442C372 444 361.4 445.6 352.2 446.8V481C352.2 490.6 358.6 496 371.4 497.2C380.2 498 391.4 498.4 405 498.4C419 498.4 433 498 447 497.2C461 496.4 472.4 495.4 481.2 494.2C486.8 493.4 491 491.6 493.8 488.8C496.6 486 499 482 501 476.8C503 471.6 505.2 463.8 507.6 453.4C510.4 443 512.8 432.8 514.8 422.8C517.2 412.8 518.8 406 519.6 402.4C524.8 398.8 528.8 399.4 531.6 404.2C531.6 408.2 531.2 415.2 530.4 425.2C530 435.2 529.6 445 529.2 454.6C528.8 463.8 528.6 469.8 528.6 472.6C528.6 478.6 531 482.4 535.8 484C541.4 485.6 545.6 487.4 548.4 489.4C551.2 491.4 552.6 494.6 552.6 499C552.6 502.6 551 506.2 547.8 509.8C545 513.8 538.2 517.2 527.4 520C516.6 522.8 499.6 524.8 476.4 526C462.4 526.8 444.4 527.2 422.4 527.2C400.8 527.6 380 527.4 360 526.6ZM102.6 545.8C98.6 547.4 95.8 546.4 94.2 542.8C91.8 538 87.8 530.6 82.2 520.6C77 510.6 72.8 502.6 69.6 496.6C68 493.8 68 491.6 69.6 490C70.4 488.8 71.8 488.2 73.8 488.2C76.2 488.2 79 488.4 82.2 488.8C84.6 489.2 86.8 489.6 88.8 490C91.2 490 93.8 490 96.6 490C103.4 490 111 489.8 119.4 489.4C127.8 488.6 136.8 487.8 146.4 487V402.4C146.4 396 146 390 145.2 384.4C144.4 378.8 143.4 375.2 142.2 373.6C140.6 371.2 140.6 369 142.2 367C143 365.4 144.8 365 147.6 365.8C154 366.6 162.4 368.4 172.8 371.2C183.6 373.6 192.2 375.8 198.6 377.8C202.6 378.2 204.2 380.6 203.4 385C203.4 389 201.2 391 196.8 391C191.6 391.4 187.8 392.4 185.4 394C183 395.2 181.8 398.8 181.8 404.8V423.4H219C221.8 423.4 223.8 422.6 225 421C227.4 418.6 230.6 415.2 234.6 410.8C239 406 242 402.6 243.6 400.6C247.2 397 251 396.8 255 400C259 402.8 263.8 406.8 269.4 412C275 417.2 279.6 421.6 283.2 425.2C286.8 428.4 288 431.8 286.8 435.4C286 439 283.8 440.8 280.2 440.8H181.8V483.4C203 480.6 224 477.6 244.8 474.4C266 471.2 283.4 468.2 297 465.4C301.8 468.2 302.8 472.2 300 477.4C289.2 480.6 275.8 484.4 259.8 488.8C244.2 493.2 227.6 497.6 210 502C192.8 506.8 176.2 511 160.2 514.6C144.2 518.6 130.6 521.8 119.4 524.2C113.4 525.4 109.6 526.8 108 528.4C106.4 530 106 533 106.8 537.4C107.6 541.4 106.2 544.2 102.6 545.8ZM101.4 340H198.6V284.8H103.2V295.6C103.2 311.2 102.6 326 101.4 340ZM349.8 340H436.2V284.8H349.8V340ZM234 340H314.4V284.8H234V340ZM103.2 267.4H198.6V226.6H103.2V267.4ZM234 267.4H314.4V226.6H234V267.4Z" fill="#AC881B"/>
</svg>
